<?xml version="1.0" encoding="UTF-8"?>
<svg version="1.1" xmlns="http://www.w3.org/2000/svg" width="512" height="512">
<path d="M0 0 C1.02627166 -0.00297112 2.05254332 -0.00594224 3.10991412 -0.0090034 C6.55357505 -0.01768459 9.99720119 -0.01919817 13.44087219 -0.02069092 C15.90811233 -0.02531951 18.37535175 -0.03034422 20.84259033 -0.03573608 C27.54936469 -0.04885833 34.25612545 -0.0553416 40.96290946 -0.05974674 C45.15327121 -0.06251212 49.34363066 -0.06675002 53.53399086 -0.07125092 C65.14326552 -0.08344168 76.75253834 -0.0937412 88.36181927 -0.09712601 C89.47578948 -0.09745536 89.47578948 -0.09745536 90.61226415 -0.09779136 C91.35665594 -0.09800964 92.10104774 -0.09822791 92.86799687 -0.09845281 C94.37633813 -0.09889627 95.88467938 -0.09934283 97.39302063 -0.09979248 C98.5152971 -0.10012463 98.5152971 -0.10012463 99.66024581 -0.10046348 C111.7779372 -0.10440977 123.8955684 -0.1218595 136.01323655 -0.145152 C148.46392215 -0.1688908 160.91457758 -0.18132902 173.36528617 -0.18249393 C180.35198326 -0.18340929 187.3386019 -0.18912666 194.32527733 -0.20731354 C200.89900086 -0.22436555 207.47260209 -0.22594826 214.04635048 -0.21717453 C216.45615665 -0.2164043 218.86597083 -0.22074494 221.27575684 -0.23063278 C224.57179102 -0.24336153 227.86729919 -0.23746998 231.16333008 -0.22705078 C232.58530001 -0.23913539 232.58530001 -0.23913539 234.03599662 -0.25146413 C245.47912542 -0.16717524 253.71168642 3.11311423 261.87689209 11.06703186 C267.03818525 16.55626785 269.79830376 21.614438 272.1842804 28.71466064 C272.54909012 29.74048752 272.91389984 30.76631439 273.2897644 31.82322693 C274.08488405 34.06296709 274.87110855 36.30588058 275.64942932 38.55151367 C276.95335503 42.29618451 278.29110948 46.02783614 279.64082336 49.75616455 C280.11763113 51.0745153 280.59438643 52.39288502 281.0710907 53.71127319 C281.30992352 54.37178806 281.54875633 55.03230293 281.79482651 55.7128334 C283.00622779 59.0689253 284.2097308 62.42783882 285.41279602 65.78692627 C285.77225091 66.79023578 285.77225091 66.79023578 286.13896751 67.81381416 C287.37525951 71.26548327 288.60999878 74.71770233 289.84321594 78.17047119 C291.06262111 81.5839722 292.28595837 84.99604213 293.51181221 88.40723228 C294.19391694 90.30899498 294.87157173 92.21235185 295.5491333 94.11573792 C295.96038956 95.25931259 296.37164581 96.40288727 296.79536438 97.58111572 C297.15460495 98.58572342 297.51384552 99.59033112 297.88397217 100.62538147 C298.87330096 103.32157152 298.87330096 103.32157152 300.89912415 106.14044189 C301.0692804 105.59774658 301.23943665 105.05505127 301.41474915 104.49591064 C303.88298551 97.2093618 303.88298551 97.2093618 307.89912415 95.14044189 C310.8666622 94.23930805 313.55365291 94.00499329 316.64839172 93.97930908 C317.58649185 93.96970154 318.52459198 93.96009399 319.49111938 93.95019531 C320.49845627 93.94594543 321.50579315 93.94169556 322.5436554 93.93731689 C324.10837837 93.92876678 324.10837837 93.92876678 325.70471191 93.92004395 C327.91118864 93.91060315 330.11767942 93.90406362 332.32417297 93.90020752 C335.68860145 93.89050827 339.05241727 93.85947822 342.41670227 93.82794189 C344.56318303 93.82141079 346.70966814 93.81616074 348.8561554 93.81231689 C349.85741959 93.79997009 350.85868378 93.78762329 351.89028931 93.77490234 C357.6685266 93.79320316 361.81285238 94.31796501 366.89912415 97.14044189 C368.42256165 99.26153564 368.42256165 99.26153564 369.27412415 101.57794189 C369.57060852 102.33977783 369.8670929 103.10161377 370.17256165 103.88653564 C373.67232114 114.74331645 372.9180011 127.1592834 369.2624054 137.85528564 C367.42789146 140.93033049 366.20830641 141.66479557 362.89912415 143.14044189 C359.16717394 143.61503569 355.45062107 143.62920031 351.6920929 143.65216064 C350.61156143 143.67011185 349.53102997 143.68806305 348.41775513 143.70655823 C344.97408423 143.76064453 341.53055182 143.79455235 338.08662415 143.82794189 C335.74871426 143.86111636 333.41082264 143.89560614 331.07295227 143.93145752 C325.34846709 144.01637008 319.62396394 144.0847272 313.89912415 144.14044189 C314.44399475 144.46875 314.98886536 144.79705811 315.55024719 145.13531494 C316.26736877 145.57399902 316.98449036 146.01268311 317.7233429 146.46466064 C318.4332135 146.89609375 319.14308411 147.32752686 319.87446594 147.77203369 C325.36986521 151.48621588 328.42224241 156.78632746 329.89912415 163.14044189 C330.33974932 168.49070302 330.30984469 173.82825847 330.28730774 179.19171143 C330.29137729 180.81860709 330.29672131 182.44549999 330.30323792 184.0723877 C330.31686961 188.47307237 330.31163065 192.87354515 330.30210066 197.27423334 C330.29448512 201.88653271 330.30155469 206.4988144 330.30625916 211.1111145 C330.3117101 218.85318243 330.30454132 226.59516437 330.29023743 234.33721924 C330.27390065 243.2827871 330.27920953 252.22814993 330.29571664 261.17371285 C330.30933661 268.86309408 330.31124902 276.55241365 330.30340064 284.24180305 C330.29872841 288.83058971 330.29808711 293.41928002 330.3080101 298.00806046 C330.31668532 302.32063893 330.31064777 306.63295325 330.29332733 310.94550323 C330.28936595 312.52651659 330.29049058 314.10755223 330.29711533 315.68855667 C330.30533472 317.84958496 330.29500572 320.00977097 330.28007507 322.17074585 C330.278944 323.37896563 330.27781292 324.5871854 330.27664757 325.8320179 C329.73737171 330.55795827 328.34102487 333.96914864 324.62080383 336.99118042 C321.34958099 338.372493 318.90182295 338.5212347 315.35224915 338.52862549 C314.04739563 338.53808197 312.74254211 338.54753845 311.39814758 338.55728149 C309.98180333 338.55191148 308.56546187 338.54575845 307.14912415 338.53887939 C305.68851069 338.54090182 304.22789822 338.54381466 302.76728821 338.5475769 C299.710875 338.55199238 296.65472539 338.54559451 293.5983429 338.53155518 C289.68758663 338.51446342 285.77744809 338.52430881 281.86671448 338.54227257 C278.85203934 338.5531316 275.8375098 338.54965442 272.8228302 338.54188919 C271.38117906 338.53989303 269.93951455 338.54232592 268.49787903 338.54932785 C266.48058843 338.55697633 264.46325127 338.54324484 262.44599915 338.52862549 C261.29970032 338.52623871 260.15340149 338.52385193 258.97236633 338.52139282 C255.42969396 338.08225258 253.66777188 337.38948607 250.89912415 335.14044189 C241.19918142 315.74055644 247.89912415 291.83017321 247.89912415 270.14044189 C160.77912415 270.14044189 73.65912415 270.14044189 -16.10087585 270.14044189 C-16.10087585 289.61044189 -16.10087585 309.08044189 -16.10087585 329.14044189 C-20.10087585 336.14044189 -20.10087585 336.14044189 -21.9487915 337.56077576 C-24.86292851 338.34570156 -27.51441994 338.40298587 -30.53422546 338.4151001 C-31.83915451 338.42463211 -33.14408356 338.43416412 -34.48855591 338.44398499 C-35.91011075 338.44372355 -37.3316656 338.44278646 -38.7532196 338.44122314 C-40.21526206 338.44511174 -41.67730339 338.44944675 -43.13934326 338.45420837 C-46.201672 338.46166407 -49.26388544 338.46138406 -52.32621765 338.45611572 C-56.24481986 338.45032183 -60.16294929 338.46725283 -64.08147335 338.4904604 C-67.10042059 338.50521337 -70.11925437 338.50606733 -73.13823128 338.50295067 C-74.58268228 338.5034631 -76.02713976 338.50868612 -77.47155571 338.51876259 C-79.49371083 338.53113856 -81.51596165 338.52238547 -83.53813171 338.51275635 C-84.68744675 338.51338577 -85.83676178 338.5140152 -87.02090454 338.5146637 C-90.57142349 338.08326955 -92.32819399 337.39495158 -95.10087585 335.14044189 C-97.79318062 330.67967298 -98.47811987 327.36216965 -98.48855591 322.1842041 C-98.49394145 321.50826352 -98.49932698 320.83232294 -98.50487572 320.13589931 C-98.51911876 317.88364451 -98.51206089 315.63198052 -98.50492859 313.37969971 C-98.51063425 311.75958791 -98.51759927 310.13948013 -98.52572632 308.51937866 C-98.54365548 304.12658257 -98.54248929 299.73398627 -98.53678393 295.34116459 C-98.53369039 291.66847639 -98.53978669 287.99582647 -98.54582268 284.32314372 C-98.55986676 275.65348669 -98.55830882 266.98392819 -98.54692078 258.31427002 C-98.53545155 249.38582111 -98.54949533 240.45767299 -98.57631725 231.52926373 C-98.59851342 223.85174617 -98.60510246 216.17432274 -98.59924084 208.49677539 C-98.59587798 203.91673505 -98.59824103 199.3368873 -98.61549187 194.75687408 C-98.63102047 190.44589532 -98.62694031 186.13535967 -98.60818672 181.82439804 C-98.60451651 180.24828803 -98.60756326 178.67214477 -98.61807251 177.09606552 C-98.67741511 167.45504122 -98.47578769 158.47236569 -92.10087585 150.70294189 C-91.44087585 150.18731689 -90.78087585 149.67169189 -90.10087585 149.14044189 C-89.11087585 148.33606689 -89.11087585 148.33606689 -88.10087585 147.51544189 C-86.16137602 146.18203576 -84.21270554 145.16995887 -82.10087585 144.14044189 C-82.70364853 144.13457565 -83.3064212 144.12870941 -83.92745972 144.12266541 C-90.20570677 144.05869179 -96.4834431 143.97426167 -102.76127625 143.87799072 C-105.10365563 143.84475283 -107.44611489 143.81671739 -109.78862 143.79400635 C-113.15737418 143.76044022 -116.52539716 143.7081217 -119.8938446 143.65216064 C-120.93985336 143.64577072 -121.98586212 143.6393808 -123.06356812 143.63279724 C-132.23115506 143.4477499 -132.23115506 143.4477499 -136.10087585 140.14044189 C-141.8379622 130.52383584 -141.53425787 117.09526996 -139.33525085 106.42559814 C-136.72200581 97.87033163 -136.72200581 97.87033163 -132.10087585 95.14044189 C-129.13883617 94.22389161 -126.44406946 94.00497439 -123.35160828 93.97930908 C-122.41350815 93.96970154 -121.47540802 93.96009399 -120.50888062 93.95019531 C-119.50154373 93.94594543 -118.49420685 93.94169556 -117.4563446 93.93731689 C-115.89162163 93.92876678 -115.89162163 93.92876678 -114.29528809 93.92004395 C-112.08881136 93.91060315 -109.88232058 93.90406362 -107.67582703 93.90020752 C-104.31139855 93.89050827 -100.94758273 93.85947822 -97.58329773 93.82794189 C-95.43681697 93.82141079 -93.29033186 93.81616074 -91.1438446 93.81231689 C-90.14258041 93.79997009 -89.14131622 93.78762329 -88.10971069 93.77490234 C-82.33157776 93.79320283 -78.18121558 94.30431137 -73.10087585 97.14044189 C-71.28837585 99.57794189 -71.28837585 99.57794189 -70.10087585 102.14044189 C-69.43710721 103.4752203 -68.77093306 104.80880922 -68.10087585 106.14044189 C-67.68950378 104.97625732 -67.27813171 103.81207275 -66.85429382 102.61260986 C-59.73289548 82.47087256 -52.59913385 62.33293468 -45.24693298 42.27404785 C-44.65430747 40.65626619 -44.06325726 39.03790651 -43.47386169 37.41894531 C-37.90741983 22.14315834 -33.09082187 9.37100472 -17.46025085 2.01544189 C-11.69032826 -0.12439695 -6.0765462 -0.00548956 0 0 Z M0.89912415 43.14044189 C-6.36087585 63.27044189 -13.62087585 83.40044189 -21.10087585 104.14044189 C-30.40643141 129.41821967 -30.40643141 129.41821967 -34.1648407 139.50665283 C-35.1566884 141.83162304 -35.1566884 141.83162304 -35.10087585 143.14044189 C64.22912415 143.14044189 163.55912415 143.14044189 265.89912415 143.14044189 C264.1845411 135.40245338 264.1845411 135.40245338 261.82710266 127.99517822 C261.42230179 126.87142288 261.01750092 125.74766754 260.60043335 124.58985901 C259.94584389 122.79925301 259.94584389 122.79925301 259.2780304 120.97247314 C258.81352876 119.68973898 258.3495048 118.40683175 257.88592529 117.12376404 C256.66375233 113.74531501 255.4348799 110.36934109 254.2046051 106.99383545 C252.99500912 103.67119762 251.79219394 100.34610857 250.58857727 97.02130127 C244.07445467 79.04299723 237.48202605 61.09381072 230.89912415 43.14044189 C154.99912415 43.14044189 79.09912415 43.14044189 0.89912415 43.14044189 Z M-55.10087585 183.14044189 C-58.10602427 187.0864994 -59.89761324 191.16050788 -60.10087585 196.14044189 C-59.18753135 202.53385339 -57.09386375 206.92627476 -52.10087585 211.14044189 C-46.1853074 215.18618288 -39.92564159 214.57319281 -33.03837585 214.53887939 C-31.77372498 214.54174957 -30.5090741 214.54461975 -29.20610046 214.5475769 C-26.53626982 214.54961548 -23.8672674 214.54561791 -21.19755554 214.53155518 C-17.7879835 214.51446357 -14.37912006 214.52431275 -10.96957397 214.54227257 C-7.70081642 214.55576412 -4.43214268 214.546298 -1.16337585 214.53887939 C0.66495789 214.54798843 0.66495789 214.54798843 2.53022766 214.55728149 C9.37264391 214.5005914 14.39095495 214.23632625 19.72724915 209.52716064 C23.87138901 204.57468581 25.94401578 200.92372311 25.83662415 194.26544189 C24.94340174 188.90610749 22.47784506 184.22626044 18.2233429 180.78497314 C11.3418424 176.55841963 3.87957892 176.98119 -3.90556335 176.97247314 C-4.94351044 176.96914474 -5.98145752 176.96581635 -7.05085754 176.96238708 C-9.24119119 176.95733663 -11.43153249 176.95497818 -13.62187195 176.95513916 C-16.9574512 176.95295396 -20.29269884 176.93478155 -23.6282196 176.91583252 C-25.76233306 176.91289788 -27.89644808 176.91091356 -30.03056335 176.90997314 C-31.02039215 176.90278763 -32.01022095 176.89560211 -33.03004456 176.88819885 C-41.27040192 176.91514023 -48.54720386 177.62939954 -55.10087585 183.14044189 Z M210.89912415 183.14044189 C207.08536942 188.5003134 205.14440476 193.55947077 206.23506165 200.17950439 C207.99139775 206.0871804 211.92730173 209.68221864 216.89912415 213.14044189 C220.0014811 214.17456088 222.19847272 214.28548994 225.45283508 214.31744385 C226.59121826 214.33027908 227.72960144 214.34311432 228.90248108 214.3563385 C230.13371704 214.36372543 231.364953 214.37111237 232.63349915 214.37872314 C233.90002319 214.38679489 235.16654724 214.39486664 236.47145081 214.40318298 C239.1547359 214.41702446 241.83789812 214.42804037 244.52119446 214.43560791 C247.9453769 214.44665301 251.36890602 214.48103536 254.79285812 214.52077961 C258.07300652 214.55333695 261.35321382 214.55773261 264.63349915 214.56622314 C265.85663818 214.58373123 267.07977722 214.60123932 268.33998108 214.61927795 C276.94780379 214.59739877 281.38911984 213.49444601 287.71162415 207.45294189 C290.8305247 202.73003534 292.41861438 198.43411707 291.5202179 192.73809814 C289.72383788 186.5688159 286.67445698 183.13298855 281.46162415 179.39044189 C275.43350266 176.44989483 268.6534117 176.97981709 262.09443665 176.97247314 C261.05648956 176.96914474 260.01854248 176.96581635 258.94914246 176.96238708 C256.75880881 176.95733663 254.56846751 176.95497818 252.37812805 176.95513916 C249.0425488 176.95295396 245.70730116 176.93478155 242.3717804 176.91583252 C240.23766694 176.91289788 238.10355192 176.91091356 235.96943665 176.90997314 C234.97960785 176.90278763 233.98977905 176.89560211 232.96995544 176.88819885 C224.72959808 176.91514023 217.45279614 177.62939954 210.89912415 183.14044189 Z " fill="#000000" transform="translate(140.1008758544922,86.85955810546875)"/>
</svg>
